<svg xmlns="http://www.w3.org/2000/svg" fill="none" viewBox="0 0 32 32"><path fill="currentColor" d="M10.863 9.228a2.09 2.09 0 0 1 0-2.957l3.658-3.66a2.094 2.094 0 0 1 2.958 0l3.659 3.66a2.09 2.09 0 0 1 0 2.957l-3.66 3.66a2.094 2.094 0 0 1-2.957 0l-3.659-3.66Zm18.526 5.293-3.66-3.66a2.092 2.092 0 0 0-2.956 0l-3.66 3.66a2.094 2.094 0 0 0 0 2.958l3.66 3.66a2.093 2.093 0 0 0 2.956 0l3.66-3.66a2.094 2.094 0 0 0 0-2.957Zm-16.5 0-3.662-3.66a2.093 2.093 0 0 0-2.956 0l-3.66 3.66a2.094 2.094 0 0 0 0 2.958l3.66 3.66a2.093 2.093 0 0 0 2.956 0l3.66-3.66a2.094 2.094 0 0 0 0-2.957h.002Zm4.591 4.592a2.094 2.094 0 0 0-2.957 0l-3.66 3.66a2.09 2.09 0 0 0 0 2.956l3.658 3.66a2.094 2.094 0 0 0 2.958 0l3.659-3.66a2.09 2.09 0 0 0 0-2.956l-3.658-3.66Z"/></svg>