<svg xmlns="http://www.w3.org/2000/svg" width="16" height="16" fill="none" viewBox="0 0 16 16"><path fill="#67728A" d="M12.5 9.75c0 .406-.458.75-1 .75s-1-.344-1-.75.458-.75 1-.75 1 .344 1 .75ZM4.6 8.5h2.3L5.75 5.783 4.6 8.5Zm9.9-5v9a1 1 0 0 1-1 1h-11a1 1 0 0 1-1-1v-9a1 1 0 0 1 1-1h11a1 1 0 0 1 1 1Zm-5.54 7.305-2.75-6.5a.5.5 0 0 0-.92 0l-2.75 6.5a.5.5 0 1 0 .92.39L4.179 9.5h3.144l.717 1.695a.5.5 0 1 0 .922-.39ZM13.5 8.25c0-.965-.898-1.75-2-1.75a2.179 2.179 0 0 0-1.299.418.5.5 0 1 0 .598.801c.204-.146.45-.223.701-.219.535 0 .988.335 1 .735a2.203 2.203 0 0 0-1-.235c-1.102 0-2 .785-2 1.75s.898 1.75 2 1.75c.37.002.733-.09 1.058-.266A.5.5 0 0 0 13.5 11V8.25Z"/></svg>