<svg xmlns="http://www.w3.org/2000/svg" width="13" height="16" fill="none" viewBox="0 0 13 16"><path fill="#67728A" d="M10.646.681H1.72c-.444 0-.87.183-1.183.507-.314.325-.49.765-.49 1.224v11.539c0 .459.176.899.49 1.223.313.325.74.508 1.183.508h8.926c.443 0 .87-.183 1.183-.508.314-.324.49-.764.49-1.223V2.412c0-.459-.176-.899-.49-1.224a1.646 1.646 0 0 0-1.184-.507ZM1.72 1.835h8.925c.149 0 .29.061.395.17a.587.587 0 0 1 .163.407v.577H1.163v-.577c0-.153.058-.3.162-.408a.549.549 0 0 1 .395-.169Zm8.925 12.693H1.72a.549.549 0 0 1-.395-.17.587.587 0 0 1-.163-.407v-.577h10.041v.577c0 .153-.058.3-.163.408a.549.549 0 0 1-.394.169Z"/></svg>