<svg xmlns="http://www.w3.org/2000/svg" width="17" height="16" fill="none" viewBox="0 0 17 16"><path fill="#67728A" d="M13.542 9.5H3.458a.408.408 0 0 0-.324.183.755.755 0 0 0-.134.442v1.25c0 .166.048.325.134.442a.408.408 0 0 0 .324.183h10.084a.408.408 0 0 0 .324-.183.755.755 0 0 0 .134-.442v-1.25a.756.756 0 0 0-.134-.442.408.408 0 0 0-.324-.183ZM14 7.625v-.75c0-.1-.048-.195-.134-.265a.515.515 0 0 0-.324-.11H3.458a.515.515 0 0 0-.324.11.344.344 0 0 0-.134.265v.75c0 .1.048.195.134.265.086.07.203.11.324.11h10.084c.121 0 .238-.04.324-.11A.344.344 0 0 0 14 7.625ZM3.458 4h10.084c.121 0 .238.026.324.073.086.047.134.11.134.177v.5c0 .066-.048.13-.134.177a.695.695 0 0 1-.324.073H3.458a.695.695 0 0 1-.324-.073C3.048 4.88 3 4.817 3 4.75v-.5c0-.066.048-.13.134-.177A.695.695 0 0 1 3.458 4Z"/></svg>