<svg xmlns="http://www.w3.org/2000/svg" width="16" height="16" fill="none" viewBox="0 0 16 16"><g clip-path="url(#composition-icon-code_svg__a)"><path fill="#67728A" d="M13.5 2.5h-11a1 1 0 0 0-1 1v9a1 1 0 0 0 1 1h11a1 1 0 0 0 1-1v-9a1 1 0 0 0-1-1ZM5.8 9.1a.5.5 0 1 1-.6.8l-2-1.5a.5.5 0 0 1 0-.8l2-1.5a.5.5 0 1 1 .6.8L4.333 8 5.8 9.1Zm3.68-4.462-2 7a.5.5 0 1 1-.96-.275l2-7a.5.5 0 0 1 .96.274ZM12.8 8.4l-2 1.5a.5.5 0 0 1-.6-.8L11.667 8 10.2 6.9a.5.5 0 1 1 .6-.8l2 1.5a.5.5 0 0 1 0 .8Z"/></g><defs><clipPath id="composition-icon-code_svg__a"><path fill="#fff" d="M0 0h16v16H0z"/></clipPath></defs></svg>