<svg xmlns="http://www.w3.org/2000/svg" width="9" height="16" fill="none" viewBox="0 0 9 16"><path fill="#0059C8" d="M7.59.682H2.137a1.39 1.39 0 0 0-.964.385c-.256.246-.4.58-.4.93v12.37c0 .348.144.683.4.93.256.246.602.385.964.385h5.455c.361 0 .708-.139.964-.385.256-.247.4-.582.4-.93V1.997c0-.35-.144-.684-.4-.93A1.39 1.39 0 0 0 7.59.682ZM4.864 3.75a.7.7 0 0 1-.378-.11.663.663 0 0 1-.252-.296.636.636 0 0 1 .148-.716.705.705 0 0 1 .743-.143c.125.05.231.134.306.242a.64.64 0 0 1-.085.83.695.695 0 0 1-.482.193Z"/></svg>