<svg width="37" height="36" viewBox="0 0 37 36" fill="none" xmlns="http://www.w3.org/2000/svg">
<rect x="18.5117" y="0.15332" width="11.6756" height="11.6756" rx="1.62053" transform="rotate(45 18.5117 0.15332)" fill="#CFD9E0"/>
<rect x="9.25439" y="9.13867" width="11.6756" height="11.6756" rx="1.62053" transform="rotate(45 9.25439 9.13867)" fill="#CFD9E0"/>
<rect x="18.0107" y="18.6255" width="11.6756" height="11.6756" rx="1.62053" transform="rotate(45 18.0107 18.6255)" fill="#CFD9E0"/>
<rect x="30.5566" y="10.1309" width="11.6756" height="11.6756" rx="1.62053" transform="rotate(60 30.5566 10.1309)" fill="#CFD9E0"/>
<path d="M31.113 17.0376C31.1441 16.9187 31.1267 16.7923 31.0645 16.6863C31.0024 16.5802 30.9007 16.5032 30.7818 16.4721C30.6629 16.4411 30.5365 16.4585 30.4305 16.5207L28.6674 17.5535L27.6345 15.7903C27.5724 15.6843 27.4707 15.6073 27.3518 15.5762C27.2329 15.5452 27.1065 15.5626 27.0005 15.6247C26.8945 15.6869 26.8174 15.7885 26.7864 15.9075C26.7553 16.0264 26.7728 16.1527 26.8349 16.2588L27.8677 18.0219L26.1046 19.0548C25.9985 19.1169 25.9215 19.2186 25.8905 19.3375C25.8594 19.4564 25.8768 19.5827 25.939 19.6888C26.0011 19.7948 26.1028 19.8718 26.2217 19.9029C26.3406 19.934 26.467 19.9165 26.573 19.8544L28.3361 18.8216L29.369 20.5847C29.4311 20.6907 29.5328 20.7678 29.6517 20.7988C29.7706 20.8299 29.897 20.8124 30.003 20.7503C30.109 20.6882 30.1861 20.5865 30.2171 20.4676C30.2482 20.3487 30.2307 20.2223 30.1686 20.1163L29.1358 18.3531L30.8989 17.3203C31.005 17.2582 31.082 17.1565 31.113 17.0376Z" fill="white" stroke="white" stroke-width="0.24308"/>
</svg>
