<svg width="80" height="40" viewBox="0 0 80 40" fill="none" xmlns="http://www.w3.org/2000/svg">
<path fill-rule="evenodd" clip-rule="evenodd" d="M15.0495 1.78216C14.612 1.78216 14.2574 2.13678 14.2574 2.57424V4.95047H12.6732V2.57424C12.6732 1.26188 13.7371 0.197998 15.0495 0.197998H25.3465C26.6589 0.197998 27.7228 1.26188 27.7228 2.57424V5.74255H26.1386V2.57424C26.1386 2.13678 25.784 1.78216 25.3465 1.78216H15.0495Z" fill="#262626"/>
<path fill-rule="evenodd" clip-rule="evenodd" d="M43.1921 0.318501C43.5631 0.550351 43.6758 1.03902 43.444 1.40998L19.6816 39.4298C19.4498 39.8007 18.9611 39.9135 18.5901 39.6817C18.2192 39.4498 18.1064 38.9611 18.3382 38.5902L42.1006 0.570382C42.3325 0.199423 42.8211 0.0866517 43.1921 0.318501Z" fill="#262626"/>
<rect x="3.96042" y="8.91089" width="3.16832" height="3.16832" rx="1.33333" fill="#262626"/>
<path fill-rule="evenodd" clip-rule="evenodd" d="M19.2916 28.7129L18.3059 30.2971H2.37624C1.06388 30.2971 0 29.2332 0 27.9209V7.3268C0 6.01444 1.06388 4.95056 2.37624 4.95056H34.077L33.0914 6.53472H2.37624C1.93878 6.53472 1.58416 6.88935 1.58416 7.3268V27.9209C1.58416 28.3583 1.93878 28.7129 2.37624 28.7129H19.2916ZM29.3863 12.4893C27.6955 9.86027 24.7442 8.11888 21.3861 8.11888C16.1367 8.11888 11.8812 12.3744 11.8812 17.6238C11.8812 22.5109 15.5695 26.5366 20.3144 27.069L21.4603 25.2274C21.4356 25.2277 21.4109 25.2278 21.3861 25.2278C17.1866 25.2278 13.7822 21.8234 13.7822 17.6238C13.7822 13.4243 17.1866 10.0199 21.3861 10.0199C24.4054 10.0199 27.0137 11.7796 28.2413 14.3294L29.3863 12.4893ZM26.9563 16.3946C26.3942 13.8358 24.1138 11.9209 21.3861 11.9209C18.2365 11.9209 15.6832 14.4742 15.6832 17.6238C15.6832 20.7735 18.2365 23.3268 21.3861 23.3268C21.8541 23.3268 22.3089 23.2704 22.7442 23.1641L26.9563 16.3946Z" fill="#262626"/>
<path d="M49.1709 13.7426H46.8861V8.87535H45.2157V6.94575H50.8413V8.87535H49.1709V13.7426ZM55.6856 11.1602H53.8232V13.7426H51.5384V6.94575H53.8136V9.24975H55.676V6.94575H57.9704V13.7426H55.6856V11.1602ZM59.2353 6.94575H63.9105V8.84655H61.3857V9.43215H63.7569V11.2082H61.3857V11.8418H64.0737V13.7426H59.2353V6.94575Z" fill="#262626"/>
<path d="M36.9202 26.6079C36.645 26.6079 36.373 26.5823 36.1042 26.5311C35.8418 26.4863 35.5858 26.4191 35.3362 26.3295C35.093 26.2335 34.8626 26.1247 34.645 26.0031C34.4274 25.8751 34.2322 25.7343 34.0594 25.5807L35.4514 24.0639C35.6114 24.2367 35.8226 24.3903 36.085 24.5247C36.3538 24.6591 36.629 24.7263 36.9106 24.7263C37.0386 24.7263 37.1538 24.7039 37.2562 24.6591C37.365 24.6143 37.4194 24.5311 37.4194 24.4095C37.4194 24.3455 37.4002 24.2911 37.3618 24.2463C37.3298 24.2015 37.269 24.1567 37.1794 24.1119C37.0898 24.0607 36.965 24.0063 36.805 23.9487C36.6514 23.8911 36.4562 23.8239 36.2194 23.7471C35.989 23.6703 35.7682 23.5807 35.557 23.4783C35.3458 23.3695 35.157 23.2383 34.9906 23.0847C34.8306 22.9311 34.7026 22.7487 34.6066 22.5375C34.5106 22.3199 34.4626 22.0607 34.4626 21.7599C34.4626 21.3375 34.549 20.9791 34.7218 20.6847C34.8946 20.3903 35.1154 20.1503 35.3842 19.9647C35.6594 19.7727 35.9666 19.6351 36.3058 19.5519C36.645 19.4687 36.981 19.4271 37.3138 19.4271C37.7618 19.4271 38.2162 19.5135 38.677 19.6863C39.1442 19.8591 39.5538 20.1087 39.9058 20.4351L38.485 21.8847C38.3314 21.6927 38.1426 21.5487 37.9186 21.4527C37.6946 21.3503 37.493 21.2991 37.3138 21.2991C37.1474 21.2991 37.013 21.3247 36.9106 21.3759C36.8082 21.4207 36.757 21.4975 36.757 21.6063C36.757 21.7087 36.8082 21.7855 36.9106 21.8367C37.0194 21.8879 37.1922 21.9519 37.429 22.0287C37.6722 22.1055 37.9282 22.1951 38.197 22.2975C38.4658 22.3999 38.7122 22.5343 38.9362 22.7007C39.1666 22.8607 39.3554 23.0591 39.5026 23.2959C39.6498 23.5327 39.7234 23.8271 39.7234 24.1791C39.7234 24.5887 39.6402 24.9471 39.4738 25.2543C39.3138 25.5551 39.0994 25.8079 38.8306 26.0127C38.5682 26.2111 38.2706 26.3583 37.9378 26.4543C37.605 26.5567 37.2658 26.6079 36.9202 26.6079ZM43.8943 26.4159H41.6095V21.5487H39.9391V19.6191H45.5647V21.5487H43.8943V26.4159ZM49.3146 26.6079C48.7834 26.6079 48.3194 26.5343 47.9226 26.3871C47.5322 26.2399 47.2058 26.0383 46.9434 25.7823C46.681 25.5263 46.4858 25.2255 46.3578 24.8799C46.2298 24.5279 46.1658 24.1503 46.1658 23.7471V19.6191H48.4506V23.4975C48.4506 23.8239 48.5274 24.0799 48.681 24.2655C48.841 24.4447 49.065 24.5343 49.353 24.5343C49.641 24.5343 49.8618 24.4447 50.0154 24.2655C50.1754 24.0799 50.2554 23.8239 50.2554 23.4975V19.6191H52.5306V23.7471C52.5306 24.1503 52.4602 24.5279 52.3194 24.8799C52.185 25.2255 51.9834 25.5263 51.7146 25.7823C51.4458 26.0383 51.1098 26.2399 50.7066 26.3871C50.3098 26.5343 49.8458 26.6079 49.3146 26.6079ZM53.7055 26.4159V19.6191H56.2399C56.7775 19.6191 57.2895 19.6735 57.7759 19.7823C58.2687 19.8847 58.7007 20.0671 59.0719 20.3295C59.4495 20.5855 59.7503 20.9279 59.9743 21.3567C60.1983 21.7855 60.3103 22.3263 60.3103 22.9791C60.3103 23.5743 60.2015 24.0895 59.9839 24.5247C59.7727 24.9599 59.4879 25.3183 59.1295 25.5999C58.7711 25.8751 58.3583 26.0799 57.8911 26.2143C57.4239 26.3487 56.9375 26.4159 56.4319 26.4159H53.7055ZM55.9039 21.5583V24.4575H56.3263C56.8639 24.4575 57.2767 24.3423 57.5647 24.1119C57.8527 23.8751 57.9967 23.4911 57.9967 22.9599C57.9967 22.5183 57.8527 22.1759 57.5647 21.9327C57.2767 21.6831 56.8927 21.5583 56.4127 21.5583H55.9039ZM61.2711 19.6191H63.5751V26.4159H61.2711V19.6191ZM64.5358 22.9791C64.5358 22.4351 64.6318 21.9455 64.8238 21.5103C65.0158 21.0687 65.2782 20.6943 65.611 20.3871C65.9502 20.0799 66.3502 19.8431 66.811 19.6767C67.2718 19.5103 67.771 19.4271 68.3086 19.4271C68.8462 19.4271 69.3454 19.5103 69.8062 19.6767C70.267 19.8431 70.667 20.0799 71.0062 20.3871C71.3454 20.6943 71.611 21.0687 71.803 21.5103C71.995 21.9455 72.091 22.4351 72.091 22.9791C72.091 23.5231 71.995 24.0191 71.803 24.4671C71.611 24.9151 71.3454 25.2991 71.0062 25.6191C70.667 25.9327 70.267 26.1759 69.8062 26.3487C69.3454 26.5215 68.8462 26.6079 68.3086 26.6079C67.771 26.6079 67.2718 26.5215 66.811 26.3487C66.3502 26.1759 65.9502 25.9327 65.611 25.6191C65.2782 25.2991 65.0158 24.9151 64.8238 24.4671C64.6318 24.0191 64.5358 23.5231 64.5358 22.9791ZM66.9646 22.9791C66.9646 23.2031 66.9966 23.4079 67.0606 23.5935C67.131 23.7791 67.2238 23.9391 67.339 24.0735C67.4606 24.2079 67.6046 24.3135 67.771 24.3903C67.9374 24.4607 68.1166 24.4959 68.3086 24.4959C68.5006 24.4959 68.6766 24.4607 68.8366 24.3903C69.003 24.3135 69.147 24.2079 69.2686 24.0735C69.3902 23.9391 69.483 23.7791 69.547 23.5935C69.6174 23.4079 69.6526 23.2031 69.6526 22.9791C69.6526 22.7615 69.6174 22.5631 69.547 22.3839C69.483 22.1983 69.3902 22.0447 69.2686 21.9231C69.147 21.7951 69.003 21.6959 68.8366 21.6255C68.6766 21.5551 68.5006 21.5199 68.3086 21.5199C68.1166 21.5199 67.9374 21.5551 67.771 21.6255C67.6046 21.6959 67.4606 21.7951 67.339 21.9231C67.2238 22.0447 67.131 22.1983 67.0606 22.3839C66.9966 22.5631 66.9646 22.7615 66.9646 22.9791Z" fill="#262626"/>
</svg>
